<svg width="17" height="15" fill="none" xmlns="http://www.w3.org/2000/svg"><path d="M4.73.764a8.341 8.341 0 00-2.805 2.642A7.809 7.809 0 00.67 6.957a7.232 7.232 0 00.588 3.623 7.113 7.113 0 002.294 2.84 7.55 7.55 0 003.458 1.383 8.171 8.171 0 003.805-.398 8.42 8.42 0 003.254-2.085 8.06 8.06 0 001.935-3.28l-1.505-.357a6.45 6.45 0 01-1.547 2.625 6.736 6.736 0 01-2.604 1.668 6.537 6.537 0 01-3.044.318 6.039 6.039 0 01-2.766-1.107A5.69 5.69 0 012.7 9.917a5.786 5.786 0 01-.47-2.9 6.247 6.247 0 011.005-2.84A6.673 6.673 0 015.48 2.062l-.75-1.3z" fill="#fff"/></svg>