<svg height="500" width="500" xmlns="http://www.w3.org/2000/svg"><path clip-rule="evenodd" d="M131.889 150.061v63.597h-27.256c-20.079 0-36.343 16.263-36.343 36.342v181.711c0 20.078 16.264 36.34 36.343 36.34h290.734c20.078 0 36.345-16.262 36.345-36.34V250c0-20.079-16.267-36.342-36.345-36.342h-27.254v-63.597c0-65.232-52.882-118.111-118.112-118.111S131.889 84.828 131.889 150.061zm45.428 63.597v-63.597c0-40.157 32.525-72.685 72.683-72.685 40.158 0 72.685 32.528 72.685 72.685v63.597H177.317zm36.341 99.941c0-20.078 16.263-36.341 36.342-36.341s36.341 16.263 36.341 36.341c0 12.812-6.634 24.079-16.625 30.529 0 0 3.55 21.446 7.542 46.699a13.61 13.61 0 01-13.629 13.625h-27.258a13.608 13.608 0 01-13.627-13.625l7.542-46.699c-9.992-6.45-16.628-17.718-16.628-30.529z" fill="#010101" fill-rule="evenodd"/></svg>