<svg width="170" height="191" fill="none" xmlns="http://www.w3.org/2000/svg"><path d="M13.241.125l45.777 36.231c-17.94 25.425-30.93 54.663-35.879 85.809l14.846-3.178c-.742 3.051-1.484 8.848-2.227 14.645-.494 3.864-.989 7.729-1.484 10.78-7.424-6.992-16.084-12.077-25.363-15.891L.25 101.825l19.177-27.967L13.241.125z" fill="#161326"/><path d="M74.484 108.181L39.223 89.748c7.423 19.705 9.897 22.247 35.26 18.433z" fill="#161326"/><path fill-rule="evenodd" clip-rule="evenodd" d="M156.759.125l-6.186 73.733 19.177 27.967-8.661 26.696c-34.374 13.318-45.649 40.876-52.528 57.691-.673 1.644-1.303 3.185-1.91 4.6H63.967L58.4 177.464c3.093-31.145 19.795-71.19 47.633-101.064l-22.27 4.449c13.686-35.698 25.581-44.701 55.506-67.35 5.242-3.967 11.036-8.353 17.49-13.374zM71.391 155.217L85 175.558l13.609-20.341H71.39zm23.507-47.036l35.261-18.433c-7.424 19.704-9.898 22.247-35.261 18.433z" fill="#161326"/></svg>